<mxfile host="app.diagrams.net" modified="2023-04-13T01:08:22.168Z" agent="Mozilla/5.0 (Macintosh; Intel Mac OS X 10_15_7) AppleWebKit/537.36 (KHTML, like Gecko) Chrome/110.0.0.0 Safari/537.36" etag="VcjBU0T7CQYLBLcAJXlz" version="21.1.7" type="github">
  <diagram name="第 1 页" id="cVzxV38jiPvR04taGyBA">
    <mxGraphModel dx="1194" dy="623" grid="1" gridSize="10" guides="1" tooltips="1" connect="1" arrows="1" fold="1" page="1" pageScale="1" pageWidth="827" pageHeight="1169" math="0" shadow="0">
      <root>
        <mxCell id="0" />
        <mxCell id="1" parent="0" />
        <mxCell id="A6MvikjiMV5LoTdfHh8v-1" value="FTS server" style="rounded=0;whiteSpace=wrap;html=1;verticalAlign=top;" parent="1" vertex="1">
          <mxGeometry x="200" y="260" width="840" height="300" as="geometry" />
        </mxCell>
        <mxCell id="A6MvikjiMV5LoTdfHh8v-2" value="TransferService" style="rounded=0;whiteSpace=wrap;html=1;verticalAlign=top;" parent="1" vertex="1">
          <mxGeometry x="220" y="300" width="300" height="250" as="geometry" />
        </mxCell>
        <mxCell id="A6MvikjiMV5LoTdfHh8v-5" value="loop every 2s" style="edgeStyle=orthogonalEdgeStyle;rounded=0;orthogonalLoop=1;jettySize=auto;html=1;" parent="1" source="A6MvikjiMV5LoTdfHh8v-3" target="A6MvikjiMV5LoTdfHh8v-4" edge="1">
          <mxGeometry relative="1" as="geometry" />
        </mxCell>
        <mxCell id="A6MvikjiMV5LoTdfHh8v-3" value="runService" style="shape=process;whiteSpace=wrap;html=1;backgroundOutline=1;" parent="1" vertex="1">
          <mxGeometry x="230" y="330" width="120" height="40" as="geometry" />
        </mxCell>
        <mxCell id="A6MvikjiMV5LoTdfHh8v-7" value="getQueuesWithPendings()" style="edgeStyle=orthogonalEdgeStyle;rounded=0;orthogonalLoop=1;jettySize=auto;html=1;exitX=0.5;exitY=1;exitDx=0;exitDy=0;" parent="1" source="A6MvikjiMV5LoTdfHh8v-4" target="A6MvikjiMV5LoTdfHh8v-6" edge="1">
          <mxGeometry relative="1" as="geometry" />
        </mxCell>
        <mxCell id="A6MvikjiMV5LoTdfHh8v-9" style="edgeStyle=orthogonalEdgeStyle;rounded=0;orthogonalLoop=1;jettySize=auto;html=1;exitX=1;exitY=0.5;exitDx=0;exitDy=0;" parent="1" source="A6MvikjiMV5LoTdfHh8v-4" target="A6MvikjiMV5LoTdfHh8v-8" edge="1">
          <mxGeometry relative="1" as="geometry" />
        </mxCell>
        <mxCell id="A6MvikjiMV5LoTdfHh8v-4" value="executeUrlcopy" style="shape=process;whiteSpace=wrap;html=1;backgroundOutline=1;" parent="1" vertex="1">
          <mxGeometry x="230" y="405" width="120" height="40" as="geometry" />
        </mxCell>
        <mxCell id="A6MvikjiMV5LoTdfHh8v-6" value="mysql" style="shape=cylinder3;whiteSpace=wrap;html=1;boundedLbl=1;backgroundOutline=1;size=15;" parent="1" vertex="1">
          <mxGeometry x="260" y="570" width="60" height="80" as="geometry" />
        </mxCell>
        <mxCell id="A6MvikjiMV5LoTdfHh8v-11" style="edgeStyle=orthogonalEdgeStyle;rounded=0;orthogonalLoop=1;jettySize=auto;html=1;exitX=0.5;exitY=1;exitDx=0;exitDy=0;" parent="1" source="A6MvikjiMV5LoTdfHh8v-8" target="A6MvikjiMV5LoTdfHh8v-10" edge="1">
          <mxGeometry relative="1" as="geometry" />
        </mxCell>
        <mxCell id="A6MvikjiMV5LoTdfHh8v-8" value="getFiles" style="shape=process;whiteSpace=wrap;html=1;backgroundOutline=1;" parent="1" vertex="1">
          <mxGeometry x="380" y="405" width="120" height="40" as="geometry" />
        </mxCell>
        <mxCell id="A6MvikjiMV5LoTdfHh8v-12" value="select active from t_optimizer" style="edgeStyle=orthogonalEdgeStyle;rounded=0;orthogonalLoop=1;jettySize=auto;html=1;exitX=1;exitY=0.5;exitDx=0;exitDy=0;entryX=0.5;entryY=1;entryDx=0;entryDy=0;exitPerimeter=0;" parent="1" source="A6MvikjiMV5LoTdfHh8v-6" target="A6MvikjiMV5LoTdfHh8v-10" edge="1">
          <mxGeometry relative="1" as="geometry" />
        </mxCell>
        <mxCell id="A6MvikjiMV5LoTdfHh8v-10" value="getReadyTransfers" style="shape=process;whiteSpace=wrap;html=1;backgroundOutline=1;" parent="1" vertex="1">
          <mxGeometry x="380" y="470" width="120" height="40" as="geometry" />
        </mxCell>
        <mxCell id="A6MvikjiMV5LoTdfHh8v-13" value="FileTransferExecuter" style="rounded=0;whiteSpace=wrap;html=1;verticalAlign=top;" parent="1" vertex="1">
          <mxGeometry x="550" y="300" width="160" height="250" as="geometry" />
        </mxCell>
        <mxCell id="A6MvikjiMV5LoTdfHh8v-32" value="execvp" style="edgeStyle=orthogonalEdgeStyle;rounded=0;orthogonalLoop=1;jettySize=auto;html=1;exitX=0.75;exitY=0;exitDx=0;exitDy=0;fillColor=#f8cecc;strokeColor=#b85450;strokeWidth=2;" parent="1" source="A6MvikjiMV5LoTdfHh8v-14" target="A6MvikjiMV5LoTdfHh8v-17" edge="1">
          <mxGeometry relative="1" as="geometry" />
        </mxCell>
        <mxCell id="A6MvikjiMV5LoTdfHh8v-14" value="::run" style="shape=process;whiteSpace=wrap;html=1;backgroundOutline=1;" parent="1" vertex="1">
          <mxGeometry x="570" y="340" width="120" height="40" as="geometry" />
        </mxCell>
        <mxCell id="A6MvikjiMV5LoTdfHh8v-15" value="ThreadPool exec" style="edgeStyle=orthogonalEdgeStyle;rounded=0;orthogonalLoop=1;jettySize=auto;html=1;exitX=1;exitY=0.5;exitDx=0;exitDy=0;" parent="1" source="A6MvikjiMV5LoTdfHh8v-8" target="A6MvikjiMV5LoTdfHh8v-14" edge="1">
          <mxGeometry relative="1" as="geometry" />
        </mxCell>
        <mxCell id="A6MvikjiMV5LoTdfHh8v-39" value="2. Third party copy push" style="edgeStyle=orthogonalEdgeStyle;rounded=0;orthogonalLoop=1;jettySize=auto;html=1;exitX=0.25;exitY=0;exitDx=0;exitDy=0;entryX=1;entryY=0.75;entryDx=0;entryDy=0;" parent="1" source="A6MvikjiMV5LoTdfHh8v-17" target="A6MvikjiMV5LoTdfHh8v-35" edge="1">
          <mxGeometry x="0.0667" y="30" relative="1" as="geometry">
            <mxPoint as="offset" />
          </mxGeometry>
        </mxCell>
        <mxCell id="A6MvikjiMV5LoTdfHh8v-40" value="1. Third party copy pull" style="edgeStyle=orthogonalEdgeStyle;rounded=0;orthogonalLoop=1;jettySize=auto;html=1;exitX=0.75;exitY=0;exitDx=0;exitDy=0;entryX=0;entryY=0.75;entryDx=0;entryDy=0;" parent="1" source="A6MvikjiMV5LoTdfHh8v-17" target="A6MvikjiMV5LoTdfHh8v-36" edge="1">
          <mxGeometry x="0.3846" y="-20" relative="1" as="geometry">
            <mxPoint as="offset" />
          </mxGeometry>
        </mxCell>
        <mxCell id="A6MvikjiMV5LoTdfHh8v-17" value="fts_url_copy + parms" style="shape=process;whiteSpace=wrap;html=1;backgroundOutline=1;" parent="1" vertex="1">
          <mxGeometry x="600" y="200" width="120" height="40" as="geometry" />
        </mxCell>
        <mxCell id="A6MvikjiMV5LoTdfHh8v-19" value="OptimizerService/Optimizer" style="rounded=0;whiteSpace=wrap;html=1;verticalAlign=top;" parent="1" vertex="1">
          <mxGeometry x="720" y="300" width="300" height="250" as="geometry" />
        </mxCell>
        <mxCell id="A6MvikjiMV5LoTdfHh8v-22" value="loop every 60s" style="edgeStyle=orthogonalEdgeStyle;rounded=0;orthogonalLoop=1;jettySize=auto;html=1;exitX=0.5;exitY=1;exitDx=0;exitDy=0;" parent="1" source="A6MvikjiMV5LoTdfHh8v-20" target="A6MvikjiMV5LoTdfHh8v-21" edge="1">
          <mxGeometry relative="1" as="geometry" />
        </mxCell>
        <mxCell id="A6MvikjiMV5LoTdfHh8v-20" value="runService" style="shape=process;whiteSpace=wrap;html=1;backgroundOutline=1;" parent="1" vertex="1">
          <mxGeometry x="730" y="340" width="120" height="40" as="geometry" />
        </mxCell>
        <mxCell id="A6MvikjiMV5LoTdfHh8v-24" style="edgeStyle=orthogonalEdgeStyle;rounded=0;orthogonalLoop=1;jettySize=auto;html=1;exitX=0.5;exitY=1;exitDx=0;exitDy=0;" parent="1" source="A6MvikjiMV5LoTdfHh8v-21" target="A6MvikjiMV5LoTdfHh8v-23" edge="1">
          <mxGeometry relative="1" as="geometry">
            <Array as="points">
              <mxPoint x="950" y="420" />
              <mxPoint x="790" y="420" />
            </Array>
          </mxGeometry>
        </mxCell>
        <mxCell id="A6MvikjiMV5LoTdfHh8v-21" value="Optimizer::run()" style="shape=process;whiteSpace=wrap;html=1;backgroundOutline=1;" parent="1" vertex="1">
          <mxGeometry x="890" y="340" width="120" height="40" as="geometry" />
        </mxCell>
        <mxCell id="A6MvikjiMV5LoTdfHh8v-26" style="edgeStyle=orthogonalEdgeStyle;rounded=0;orthogonalLoop=1;jettySize=auto;html=1;" parent="1" source="A6MvikjiMV5LoTdfHh8v-23" target="A6MvikjiMV5LoTdfHh8v-25" edge="1">
          <mxGeometry relative="1" as="geometry" />
        </mxCell>
        <mxCell id="A6MvikjiMV5LoTdfHh8v-28" style="edgeStyle=orthogonalEdgeStyle;rounded=0;orthogonalLoop=1;jettySize=auto;html=1;exitX=1;exitY=0.5;exitDx=0;exitDy=0;" parent="1" source="A6MvikjiMV5LoTdfHh8v-23" target="A6MvikjiMV5LoTdfHh8v-27" edge="1">
          <mxGeometry relative="1" as="geometry" />
        </mxCell>
        <mxCell id="A6MvikjiMV5LoTdfHh8v-23" value="runTCNOptimizer" style="shape=process;whiteSpace=wrap;html=1;backgroundOutline=1;" parent="1" vertex="1">
          <mxGeometry x="730" y="440" width="120" height="40" as="geometry" />
        </mxCell>
        <mxCell id="A6MvikjiMV5LoTdfHh8v-30" style="edgeStyle=orthogonalEdgeStyle;rounded=0;orthogonalLoop=1;jettySize=auto;html=1;exitX=1;exitY=0.5;exitDx=0;exitDy=0;" parent="1" source="A6MvikjiMV5LoTdfHh8v-25" target="A6MvikjiMV5LoTdfHh8v-29" edge="1">
          <mxGeometry relative="1" as="geometry" />
        </mxCell>
        <mxCell id="A6MvikjiMV5LoTdfHh8v-25" value="applyDecisions" style="shape=process;whiteSpace=wrap;html=1;backgroundOutline=1;" parent="1" vertex="1">
          <mxGeometry x="730" y="500" width="120" height="40" as="geometry" />
        </mxCell>
        <mxCell id="A6MvikjiMV5LoTdfHh8v-27" value="TCNEventLoop::step()" style="shape=process;whiteSpace=wrap;html=1;backgroundOutline=1;" parent="1" vertex="1">
          <mxGeometry x="880" y="440" width="120" height="40" as="geometry" />
        </mxCell>
        <mxCell id="A6MvikjiMV5LoTdfHh8v-31" value="insert into t_optimizer" style="edgeStyle=orthogonalEdgeStyle;rounded=0;orthogonalLoop=1;jettySize=auto;html=1;exitX=0.5;exitY=1;exitDx=0;exitDy=0;entryX=0.5;entryY=1;entryDx=0;entryDy=0;entryPerimeter=0;" parent="1" source="A6MvikjiMV5LoTdfHh8v-29" target="A6MvikjiMV5LoTdfHh8v-6" edge="1">
          <mxGeometry relative="1" as="geometry" />
        </mxCell>
        <mxCell id="A6MvikjiMV5LoTdfHh8v-29" value="setOptimizerDecision" style="shape=process;whiteSpace=wrap;html=1;backgroundOutline=1;" parent="1" vertex="1">
          <mxGeometry x="880" y="500" width="120" height="40" as="geometry" />
        </mxCell>
        <mxCell id="A6MvikjiMV5LoTdfHh8v-34" value="submit transfer" style="edgeStyle=orthogonalEdgeStyle;rounded=0;orthogonalLoop=1;jettySize=auto;html=1;exitX=1;exitY=0.5;exitDx=0;exitDy=0;" parent="1" source="A6MvikjiMV5LoTdfHh8v-33" target="A6MvikjiMV5LoTdfHh8v-6" edge="1">
          <mxGeometry relative="1" as="geometry" />
        </mxCell>
        <mxCell id="A6MvikjiMV5LoTdfHh8v-33" value="rest cli" style="shape=process;whiteSpace=wrap;html=1;backgroundOutline=1;" parent="1" vertex="1">
          <mxGeometry x="50" y="590" width="120" height="40" as="geometry" />
        </mxCell>
        <mxCell id="A6MvikjiMV5LoTdfHh8v-37" style="edgeStyle=orthogonalEdgeStyle;rounded=0;orthogonalLoop=1;jettySize=auto;html=1;exitX=1;exitY=0.5;exitDx=0;exitDy=0;endArrow=classic;endFill=1;" parent="1" source="A6MvikjiMV5LoTdfHh8v-35" target="A6MvikjiMV5LoTdfHh8v-36" edge="1">
          <mxGeometry relative="1" as="geometry" />
        </mxCell>
        <mxCell id="A6MvikjiMV5LoTdfHh8v-35" value="xrd1" style="image;html=1;image=img/lib/clip_art/computers/Server_128x128.png;verticalAlign=top;" parent="1" vertex="1">
          <mxGeometry x="450" y="90" width="80" height="80" as="geometry" />
        </mxCell>
        <mxCell id="A6MvikjiMV5LoTdfHh8v-36" value="xrd2" style="image;html=1;image=img/lib/clip_art/computers/Server_128x128.png;verticalAlign=top;" parent="1" vertex="1">
          <mxGeometry x="770" y="90" width="80" height="80" as="geometry" />
        </mxCell>
        <mxCell id="A6MvikjiMV5LoTdfHh8v-41" value="3. Relay transfer" style="text;html=1;align=center;verticalAlign=middle;resizable=0;points=[];autosize=1;strokeColor=none;fillColor=none;" parent="1" vertex="1">
          <mxGeometry x="730" y="205" width="110" height="30" as="geometry" />
        </mxCell>
        <mxCell id="A6MvikjiMV5LoTdfHh8v-43" value="1/2/3 depends on protocol" style="text;html=1;align=center;verticalAlign=middle;resizable=0;points=[];autosize=1;strokeColor=default;" parent="1" vertex="1">
          <mxGeometry x="430" y="210" width="160" height="30" as="geometry" />
        </mxCell>
      </root>
    </mxGraphModel>
  </diagram>
</mxfile>
